<svg xmlns="http://www.w3.org/2000/svg" xmlns:xlink="http://www.w3.org/1999/xlink" version="1.1" width="256" height="256" viewBox="0 0 256 256" xml:space="preserve">

<defs>
</defs>
<g style="stroke: none; stroke-width: 0; stroke-dasharray: none; stroke-linecap: butt; stroke-linejoin: miter; stroke-miterlimit: 10; fill: none; fill-rule: nonzero; opacity: 1;" transform="translate(1.4065934065934016 1.4065934065934016) scale(2.81 2.81)" >
	<path d="M 63.555 69.171 L 58.679 54.5 h 2.084 c 0.476 0 0.923 -0.226 1.206 -0.608 c 0.283 -0.382 0.367 -0.876 0.229 -1.331 l -15.763 -51.5 C 46.241 0.431 45.659 0 45 0 s -1.241 0.431 -1.434 1.061 l -15.763 51.5 c -0.14 0.455 -0.055 0.949 0.228 1.331 c 0.283 0.383 0.73 0.608 1.206 0.608 h 2.083 l -4.875 14.671 c -0.152 0.457 -0.075 0.959 0.207 1.351 c 0.282 0.391 0.734 0.622 1.216 0.622 h 34.262 c 0.481 0 0.935 -0.231 1.217 -0.622 C 63.629 70.13 63.706 69.628 63.555 69.171 z" style="stroke: none; stroke-width: 1; stroke-dasharray: none; stroke-linecap: butt; stroke-linejoin: miter; stroke-miterlimit: 10; fill: rgb(28,165,111); fill-rule: nonzero; opacity: 1;" transform=" matrix(1 0 0 1 0 0) " stroke-linecap="round" />
	<path d="M 45 90 c -0.829 0 -1.5 -0.672 -1.5 -1.5 V 43.633 c 0 -0.829 0.671 -1.5 1.5 -1.5 s 1.5 0.671 1.5 1.5 V 88.5 C 46.5 89.328 45.829 90 45 90 z" style="stroke: none; stroke-width: 1; stroke-dasharray: none; stroke-linecap: butt; stroke-linejoin: miter; stroke-miterlimit: 10; fill: rgb(23,139,93); fill-rule: nonzero; opacity: 1;" transform=" matrix(1 0 0 1 0 0) " stroke-linecap="round" />
	<path d="M 45 64.186 c -0.384 0 -0.768 -0.146 -1.061 -0.439 c -0.586 -0.586 -0.586 -1.535 0 -2.121 l 4.733 -4.732 c 0.586 -0.586 1.535 -0.586 2.121 0 s 0.586 1.535 0 2.121 l -4.733 4.732 C 45.768 64.039 45.384 64.186 45 64.186 z" style="stroke: none; stroke-width: 1; stroke-dasharray: none; stroke-linecap: butt; stroke-linejoin: miter; stroke-miterlimit: 10; fill: rgb(23,139,93); fill-rule: nonzero; opacity: 1;" transform=" matrix(1 0 0 1 0 0) " stroke-linecap="round" />
	<path d="M 45 56.998 c -0.384 0 -0.768 -0.146 -1.061 -0.439 l -4.92 -4.921 c -0.586 -0.586 -0.586 -1.535 0 -2.121 s 1.535 -0.586 2.121 0 l 4.92 4.921 c 0.586 0.586 0.586 1.535 0 2.121 C 45.768 56.852 45.384 56.998 45 56.998 z" style="stroke: none; stroke-width: 1; stroke-dasharray: none; stroke-linecap: butt; stroke-linejoin: miter; stroke-miterlimit: 10; fill: rgb(23,139,93); fill-rule: nonzero; opacity: 1;" transform=" matrix(1 0 0 1 0 0) " stroke-linecap="round" />
</g>
</svg>